<?xml version="1.0" encoding="UTF-8"?>
<svg width="96px" height="96px" viewBox="0 0 96 96" version="1.1" xmlns="http://www.w3.org/2000/svg" xmlns:xlink="http://www.w3.org/1999/xlink">
    <title>Placeholder / Fixed / Circle</title>
    <g id="Profile" stroke="none" stroke-width="1" fill="none" fill-rule="evenodd">
        <g id="Profile-#1" transform="translate(-140, -81)">
            <g id="Content" transform="translate(0, 65)">
                <g id="Placeholder-/-Fixed-/-Circle" transform="translate(140, 16)">
                    <circle id="BG" fill="#F4F4F6" cx="48" cy="48" r="48"></circle>
                    <g id="Icon" transform="translate(24, 24)">
                        <polygon id="Shape" points="0 0 48 0 48 48 0 48"></polygon>
                        <path d="M24,24 C28.42,24 32,20.42 32,16 C32,11.58 28.42,8 24,8 C19.58,8 16,11.58 16,16 C16,20.42 19.58,24 24,24 L24,24 Z M24,28 C18.66,28 8,30.68 8,36 L8,40 L40,40 L40,36 C40,30.68 29.34,28 24,28 L24,28 Z" id="Shape" fill="#CDCDD2"></path>
                    </g>
                </g>
            </g>
        </g>
    </g>
</svg>